<svg id="Layer_1" data-name="Layer 1" xmlns="http://www.w3.org/2000/svg" viewBox="0 0 39 39"><defs><style>.cls-1{fill:#fff;}</style></defs><title>Artboard 1 copy 7icons_desktop</title><polygon class="cls-1" points="24.56 6.11 24.56 12.38 31.02 12.38 24.56 6.11"/><path class="cls-1" d="M23.06,15.39a1.5,1.5,0,0,1-1.5-1.5V4.36H9.1a1.5,1.5,0,0,0-1.5,1.5V33.14a1.5,1.5,0,0,0,1.5,1.5H30.85a1.5,1.5,0,0,0,1.5-1.5V15.39Zm-9-2.58h2.29a1.5,1.5,0,0,1,0,3H14a1.5,1.5,0,0,1,0-3Zm5.8,16.81H14a1.5,1.5,0,0,1,0-3h5.8a1.5,1.5,0,0,1,0,3Zm5.8-6.9H14a1.5,1.5,0,1,1,0-3h11.6a1.5,1.5,0,1,1,0,3Z"/></svg>