<svg width="19" height="18" viewBox="0 0 19 18" fill="none" xmlns="http://www.w3.org/2000/svg">
<g clip-path="url(#clip0)">
<path d="M6.84 3.70699V3.70699C4.44942 3.70699 2.51147 5.64493 2.51147 8.03551V10.9841C2.51147 13.7455 4.75005 15.9841 7.51147 15.9841H10.6746C12.9667 15.9841 14.8248 14.126 14.8248 11.8339V11.8339" stroke="black" stroke-width="3" stroke-linecap="round" stroke-linejoin="round"/>
<path d="M8.03149 10.3996L14.1086 4.16168" stroke="black" stroke-width="3" stroke-linecap="round"/>
<path d="M10.6695 0.594387C9.8399 0.594387 9.16734 1.26497 9.16734 2.09218C9.16734 2.91938 9.8399 3.58997 10.6695 3.58997L10.6695 0.594387ZM16.2098 2.09218L17.7121 2.09218C17.7121 1.26497 17.0395 0.594387 16.2098 0.594387L16.2098 2.09218ZM14.7076 7.61619C14.7076 8.4434 15.3802 9.11398 16.2098 9.11398C17.0395 9.11398 17.7121 8.4434 17.7121 7.61619H14.7076ZM10.6695 3.58997H16.2098V0.594387H10.6695L10.6695 3.58997ZM14.7076 2.09218V7.61619H17.7121V2.09218L14.7076 2.09218Z" fill="black"/>
</g>
<defs>
<clipPath id="clip0">
<rect width="19" height="18" fill="white"/>
</clipPath>
</defs>
</svg>
