<?xml version="1.0" encoding="utf-8"?>
<!-- Generator: Adobe Illustrator 23.0.1, SVG Export Plug-In . SVG Version: 6.00 Build 0)  -->
<svg version="1.1" id="Layer_1" xmlns="http://www.w3.org/2000/svg" xmlns:xlink="http://www.w3.org/1999/xlink" x="0px" y="0px"
	 viewBox="0 0 19 18" style="enable-background:new 0 0 19 18;" xml:space="preserve">
<style type="text/css">
	.st0{clip-path:url(#SVGID_2_);}
	.st1{fill:#FFFFFF;}
</style>
<g>
	<defs>
		<rect id="SVGID_1_" width="19" height="18"/>
	</defs>
	<clipPath id="SVGID_2_">
		<use xlink:href="#SVGID_1_"  style="overflow:visible;"/>
	</clipPath>
	<g class="st0">
		<path class="st1" d="M14.8,10.3c-0.8,0-1.5,0.7-1.5,1.5c0,1.5-1.2,2.7-2.7,2.7H7.5C5.6,14.5,4,12.9,4,11V8c0-1.6,1.3-2.8,2.8-2.8
			c0.8,0,1.5-0.7,1.5-1.5S7.7,2.2,6.8,2.2C3.6,2.2,1,4.8,1,8V11c0,3.6,2.9,6.5,6.5,6.5h3.2c3.1,0,5.7-2.5,5.7-5.7
			C16.3,11,15.7,10.3,14.8,10.3z"/>
		<path class="st1" d="M16.2,0.6h-5.5c-0.8,0-1.5,0.7-1.5,1.5s0.7,1.5,1.5,1.5h1.9L7,9.4c-0.6,0.6-0.6,1.5,0,2.1
			c0.3,0.3,0.7,0.4,1,0.4c0.4,0,0.8-0.2,1.1-0.5l5.6-5.8v1.9c0,0.8,0.7,1.5,1.5,1.5c0.8,0,1.5-0.7,1.5-1.5V2.1
			C17.7,1.3,17,0.6,16.2,0.6z"/>
	</g>
</g>
</svg>
