<svg id="Layer_1" data-name="Layer 1" xmlns="http://www.w3.org/2000/svg" viewBox="0 0 39 39"><defs><style>.cls-1{fill:#fff;}</style></defs><title>Artboard 1 copy 6icons_desktop</title><path class="cls-1" d="M33.68,14.67a1.48,1.48,0,0,0-1.21-1l-8-1.17L20.84,5.2a1.5,1.5,0,0,0-1.34-.84,1.52,1.52,0,0,0-1.35.84l-3.59,7.28-8,1.17a1.5,1.5,0,0,0-.83,2.56l5.81,5.66-1.37,8a1.49,1.49,0,0,0,.59,1.47,1.51,1.51,0,0,0,1.58.12l7.19-3.78,7.19,3.78a1.53,1.53,0,0,0,.69.17,1.55,1.55,0,0,0,.89-.29,1.49,1.49,0,0,0,.59-1.47l-1.37-8,5.81-5.66A1.5,1.5,0,0,0,33.68,14.67Z"/></svg>