<svg width="22" height="15" viewBox="0 0 22 15" fill="none" xmlns="http://www.w3.org/2000/svg">
<path d="M0.77862 9.97198C-0.197691 10.9483 -0.197691 12.5312 0.77862 13.5075C1.75493 14.4838 3.33784 14.4838 4.31415 13.5075L0.77862 9.97198ZM10.9702 3.31592L12.738 1.54815C11.7617 0.57184 10.1788 0.57184 9.20245 1.54815L10.9702 3.31592ZM17.6263 13.5075C18.6026 14.4838 20.1855 14.4838 21.1618 13.5075C22.1381 12.5312 22.1381 10.9483 21.1618 9.97198L17.6263 13.5075ZM4.31415 13.5075L12.738 5.08368L9.20245 1.54815L0.77862 9.97198L4.31415 13.5075ZM9.20245 5.08368L17.6263 13.5075L21.1618 9.97198L12.738 1.54815L9.20245 5.08368Z" fill="black"/>
</svg>
